<?xml version="1.0" encoding="utf-8"?>
<!-- Generator: Adobe Illustrator 18.0.0, SVG Export Plug-In . SVG Version: 6.00 Build 0)  -->
<!DOCTYPE svg PUBLIC "-//W3C//DTD SVG 1.1//EN" "http://www.w3.org/Graphics/SVG/1.1/DTD/svg11.dtd">
<svg version="1.1" id="Layer_1" xmlns="http://www.w3.org/2000/svg" xmlns:xlink="http://www.w3.org/1999/xlink" x="0px" y="0px"
	 viewBox="0 0 800 600" enable-background="new 0 0 800 600" xml:space="preserve">
<g>
	<path fill="#231F20" d="M586.6,196.9h-58.1v-45.4c18.3-14.9,30-37.7,30-62.4c0-44.1-35.6-79.7-79.7-79.7c-28.1,0-53.4,15-67.5,37.5
		c-8.4-5.6-19.7-9.4-30.9-9.4c-9.4,0-17.8,1.9-25.3,6.6C337.2,16.9,307.2,0,273.4,0c-49.7,0-90.9,36.6-97.5,84.4
		c-12.2,9.4-18.8,22.5-18.8,37.5c0,14.7,6.5,27.7,16.9,36.3v385.6c0,30.9,25.3,56.2,56.2,56.2h241.9c30.9,0,56.2-25.3,56.2-56.2
		v-56.2h58.1c30.9,0,56.2-25.3,56.2-56.2V253.1C642.8,222.2,617.5,196.9,586.6,196.9z M267.8,243.8c26.2,0,46.9-20.6,46.9-46.9
		v-28.1h167.8h8.4v328.1H211.6V168.8h9.4v28.1C220.9,223.1,241.6,243.8,267.8,243.8z M200.3,113.4c6.6-2.8,11.2-9.4,11.2-16.9
		c0.9-32.8,28.1-59.1,60.9-59.1c27.2,0,50.6,16.9,58.1,42.2c2.8,7.5,8.4,12.2,15.9,13.1c6.6,0.9,14.1-1.9,17.8-8.4
		c3.8-5.6,9.4-9.4,15.9-9.4c10.3,0,18.8,8.4,18.8,18.8s8.4,18.8,18.8,18.8c5.6,0,10.3-1.9,15-5.6c3.8-3.8,4.7-8.4,4.7-14.1
		c0-0.9,0-1.9,0-2.8c0-23.4,18.8-42.2,42.2-42.2s42.2,18.8,42.2,42.2c0,20.6-15,37.5-35.6,41.2h-1.9h-1.9H295.9
		c-10.3,0-18.8,8.4-18.8,18.8v46.9c0,4.7-4.7,9.4-9.4,9.4s-9.4-4.7-9.4-9.4V150c0-10.3-8.4-18.8-18.8-18.8h-35.6
		c-4.7,0-9.4-4.7-9.4-9.4C194.7,118.1,197.5,114.4,200.3,113.4z M472.2,562.5H230.3c-10.3,0-18.8-8.4-18.8-18.8v-9.4h279.4v9.4
		C490.9,554.1,482.5,562.5,472.2,562.5z M605.3,431.2c0,10.3-8.4,18.8-18.8,18.8h-58.1V234.4h58.1c10.3,0,18.8,8.4,18.8,18.8V431.2z
		"/>
	<path fill="#231F20" d="M267.8,440.6c10.3,0,18.8-8.4,18.8-18.8V290.6c0-10.3-8.4-18.8-18.8-18.8s-18.8,8.4-18.8,18.8v131.2
		C249.1,432.2,257.5,440.6,267.8,440.6z"/>
	<path fill="#231F20" d="M352.2,440.6c10.3,0,18.8-8.4,18.8-18.8V290.6c0-10.3-8.4-18.8-18.8-18.8s-18.8,8.4-18.8,18.8v131.2
		C333.4,432.2,341.9,440.6,352.2,440.6z"/>
	<path fill="#231F20" d="M436.6,440.6c10.3,0,18.8-8.4,18.8-18.8V290.6c0-10.3-8.4-18.8-18.8-18.8s-18.8,8.4-18.8,18.8v131.2
		C417.8,432.2,426.2,440.6,436.6,440.6z"/>
</g>
</svg>
